<svg width="207" height="71" viewBox="0 0 207 71" fill="none" xmlns="http://www.w3.org/2000/svg">
<path d="M78 0H79.8L80.1 70.1L78.2 70.2L78 0Z" fill="white"/>
<path fill-rule="evenodd" clip-rule="evenodd" d="M51.4 5.8L47.1 8.7C44.5 7.9 42.9 11 44.6 12.6L44.8 30.3C44.8 31.8 45 31.8 46.3 32.5L52.7 35.7C56.1 40.7 60.9 31.9 54.2 32.6L48.8 29.6L48.6 12.9C48.8 12.2 48.8 11.5 49.8 10.9L55 7.5L62.7 11.9L62.6 19.8L56.8 22.3C48.9 21.2 53.7 31.2 57.9 25L64.5 21.9L71.6 26.8L71.9 43.2L65.5 46.9L65.4 42C71.2 34.8 56.9 35.2 62.9 41.9L63 57.6L55.5 61.9L48.2 58.1C44.8 51.4 38.3 61.1 46.8 60.7L52.6 64L45.2 67.9L38.1 64.1V54.8L41.3 52.4C49.4 52.2 41.9 43.4 40.1 50.1L38.1 51.2L38 6.8L46 2L51.4 5.8ZM47.1 41.3L53.3 44.8L53.4 51.8C50.1 57.8 60.2 57.6 56.5 51.8V43.5L47.8 38.4C47 37.2 46.1 36.8 45.3 36.8C42.5 36.8 41.1 42.5 47.1 41.3Z" fill="white"/>
<path d="M14.4 47C7.1 36.6 9.3 17.9 25.4 15.7L24.5 13.1L21.6 14.2L20 11.8C18.9 9.4 15.5 9.8 17.2 13.7L18.4 15.9C16.4 17 14.5 17.9 12.2 21.3L10.1 19.9C7.5 18.5 6.1 20.4 8.5 22.4L10.4 24C9.1 26.7 8.4 29.4 8.4 32.1L4.8 32.4C2.5 33.6 3.5 34.5 4.6 35.3L7.8 35.5C8.1 38.2 9.1 41 10.5 43.7L7.8 45.7C5.6 46.7 6.1 48.8 9 48L12.2 46.8C13.6 49.4 15.6 51 17.7 52.6L15.9 56.1C16.2 58.1 17.5 58.1 19.1 57.5L20.8 54.6C23.8 56.8 26.1 56.7 28.5 57V65.3L25.3 65.4L25.4 59.9L21.8 58.7L18.1 63L10.4 58.3L13.6 53.8L9.9 50.3L5.9 53.3L1.2 45.9L6.4 42.2C5.8 41 5.4 39.9 5.3 38.9L0 39L0.1 29.1L5.9 29.4L6.7 25.3L2.4 22L7.8 14.7L11.8 17.4L14.6 14.6L12.7 9.8L20.5 5.9L23.5 10.7L26.8 9.5L26.7 4L29.8 4.1L29.7 18.8C13.9 19.7 10.1 36.2 17.5 44.9C20.7 48.6 27 52.2 32.3 51.5L32.2 55.1C25.5 55.4 18.7 53.2 14.4 47Z" fill="white"/>
<path d="M88.0005 22.032V25.76H92.0645V26.96H88.0005V30.8H92.5445V32H86.5445V20.832H92.5445V22.032H88.0005ZM106.06 20.928V32H104.604V23.744L100.924 32H99.8996L96.2036 23.728V32H94.7476V20.928H96.3156L100.412 30.08L104.508 20.928H106.06ZM112.065 32.112C111.329 32.112 110.668 31.984 110.081 31.728C109.505 31.4613 109.052 31.0987 108.721 30.64C108.39 30.1707 108.22 29.632 108.209 29.024H109.761C109.814 29.5467 110.028 29.9893 110.401 30.352C110.785 30.704 111.34 30.88 112.065 30.88C112.758 30.88 113.302 30.7093 113.697 30.368C114.102 30.016 114.305 29.568 114.305 29.024C114.305 28.5973 114.188 28.2507 113.953 27.984C113.718 27.7173 113.425 27.5147 113.073 27.376C112.721 27.2373 112.246 27.088 111.649 26.928C110.913 26.736 110.321 26.544 109.873 26.352C109.436 26.16 109.057 25.8613 108.737 25.456C108.428 25.04 108.273 24.4853 108.273 23.792C108.273 23.184 108.428 22.6453 108.737 22.176C109.046 21.7067 109.478 21.344 110.033 21.088C110.598 20.832 111.244 20.704 111.969 20.704C113.014 20.704 113.868 20.9653 114.529 21.488C115.201 22.0107 115.58 22.704 115.665 23.568H114.065C114.012 23.1413 113.788 22.768 113.393 22.448C112.998 22.1173 112.476 21.952 111.825 21.952C111.217 21.952 110.721 22.112 110.337 22.432C109.953 22.7413 109.761 23.1787 109.761 23.744C109.761 24.1493 109.873 24.48 110.097 24.736C110.332 24.992 110.614 25.1893 110.945 25.328C111.286 25.456 111.761 25.6053 112.369 25.776C113.105 25.9787 113.697 26.1813 114.145 26.384C114.593 26.576 114.977 26.88 115.297 27.296C115.617 27.7013 115.777 28.256 115.777 28.96C115.777 29.504 115.633 30.016 115.345 30.496C115.057 30.976 114.63 31.3653 114.065 31.664C113.5 31.9627 112.833 32.112 112.065 32.112Z" fill="white"/>
<path d="M87.5189 46.77V49.1H90.0589V49.85H87.5189V52.25H90.3589V53H86.6089V46.02H90.3589V46.77H87.5189ZM91.3958 50.24C91.3958 49.68 91.5092 49.19 91.7358 48.77C91.9625 48.3433 92.2725 48.0133 92.6658 47.78C93.0658 47.5467 93.5092 47.43 93.9958 47.43C94.4758 47.43 94.8925 47.5333 95.2458 47.74C95.5992 47.9467 95.8625 48.2067 96.0358 48.52V47.52H96.9558V53H96.0358V51.98C95.8558 52.3 95.5858 52.5667 95.2258 52.78C94.8725 52.9867 94.4592 53.09 93.9858 53.09C93.4992 53.09 93.0592 52.97 92.6658 52.73C92.2725 52.49 91.9625 52.1533 91.7358 51.72C91.5092 51.2867 91.3958 50.7933 91.3958 50.24ZM96.0358 50.25C96.0358 49.8367 95.9525 49.4767 95.7858 49.17C95.6192 48.8633 95.3925 48.63 95.1058 48.47C94.8258 48.3033 94.5158 48.22 94.1758 48.22C93.8358 48.22 93.5258 48.3 93.2458 48.46C92.9658 48.62 92.7425 48.8533 92.5758 49.16C92.4092 49.4667 92.3258 49.8267 92.3258 50.24C92.3258 50.66 92.4092 51.0267 92.5758 51.34C92.7425 51.6467 92.9658 51.8833 93.2458 52.05C93.5258 52.21 93.8358 52.29 94.1758 52.29C94.5158 52.29 94.8258 52.21 95.1058 52.05C95.3925 51.8833 95.6192 51.6467 95.7858 51.34C95.9525 51.0267 96.0358 50.6633 96.0358 50.25ZM100.434 53.09C100.014 53.09 99.637 53.02 99.3036 52.88C98.9703 52.7333 98.707 52.5333 98.5136 52.28C98.3203 52.02 98.2136 51.7233 98.1936 51.39H99.1336C99.1603 51.6633 99.287 51.8867 99.5136 52.06C99.747 52.2333 100.05 52.32 100.424 52.32C100.77 52.32 101.044 52.2433 101.244 52.09C101.444 51.9367 101.544 51.7433 101.544 51.51C101.544 51.27 101.437 51.0933 101.224 50.98C101.01 50.86 100.68 50.7433 100.234 50.63C99.827 50.5233 99.4936 50.4167 99.2336 50.31C98.9803 50.1967 98.7603 50.0333 98.5736 49.82C98.3936 49.6 98.3036 49.3133 98.3036 48.96C98.3036 48.68 98.387 48.4233 98.5536 48.19C98.7203 47.9567 98.957 47.7733 99.2636 47.64C99.5703 47.5 99.9203 47.43 100.314 47.43C100.92 47.43 101.41 47.5833 101.784 47.89C102.157 48.1967 102.357 48.6167 102.384 49.15H101.474C101.454 48.8633 101.337 48.6333 101.124 48.46C100.917 48.2867 100.637 48.2 100.284 48.2C99.957 48.2 99.697 48.27 99.5036 48.41C99.3103 48.55 99.2136 48.7333 99.2136 48.96C99.2136 49.14 99.2703 49.29 99.3836 49.41C99.5036 49.5233 99.6503 49.6167 99.8236 49.69C100.004 49.7567 100.25 49.8333 100.564 49.92C100.957 50.0267 101.277 50.1333 101.524 50.24C101.77 50.34 101.98 50.4933 102.154 50.7C102.334 50.9067 102.427 51.1767 102.434 51.51C102.434 51.81 102.35 52.08 102.184 52.32C102.017 52.56 101.78 52.75 101.474 52.89C101.174 53.0233 100.827 53.09 100.434 53.09ZM108.438 47.52L105.138 55.58H104.198L105.278 52.94L103.068 47.52H104.078L105.798 51.96L107.498 47.52H108.438ZM119.089 46.08V53H118.179V47.84L115.879 53H115.239L112.929 47.83V53H112.019V46.08H112.999L115.559 51.8L118.119 46.08H119.089ZM125.632 50.05C125.632 50.2233 125.622 50.4067 125.602 50.6H121.222C121.256 51.14 121.439 51.5633 121.772 51.87C122.112 52.17 122.522 52.32 123.002 52.32C123.396 52.32 123.722 52.23 123.982 52.05C124.249 51.8633 124.436 51.6167 124.542 51.31H125.522C125.376 51.8367 125.082 52.2667 124.642 52.6C124.202 52.9267 123.656 53.09 123.002 53.09C122.482 53.09 122.016 52.9733 121.602 52.74C121.196 52.5067 120.876 52.1767 120.642 51.75C120.409 51.3167 120.292 50.8167 120.292 50.25C120.292 49.6833 120.406 49.1867 120.632 48.76C120.859 48.3333 121.176 48.0067 121.582 47.78C121.996 47.5467 122.469 47.43 123.002 47.43C123.522 47.43 123.982 47.5433 124.382 47.77C124.782 47.9967 125.089 48.31 125.302 48.71C125.522 49.1033 125.632 49.55 125.632 50.05ZM124.692 49.86C124.692 49.5133 124.616 49.2167 124.462 48.97C124.309 48.7167 124.099 48.5267 123.832 48.4C123.572 48.2667 123.282 48.2 122.962 48.2C122.502 48.2 122.109 48.3467 121.782 48.64C121.462 48.9333 121.279 49.34 121.232 49.86H124.692ZM126.493 50.25C126.493 49.6833 126.607 49.19 126.833 48.77C127.06 48.3433 127.373 48.0133 127.773 47.78C128.18 47.5467 128.643 47.43 129.163 47.43C129.837 47.43 130.39 47.5933 130.823 47.92C131.263 48.2467 131.553 48.7 131.693 49.28H130.713C130.62 48.9467 130.437 48.6833 130.163 48.49C129.897 48.2967 129.563 48.2 129.163 48.2C128.643 48.2 128.223 48.38 127.903 48.74C127.583 49.0933 127.423 49.5967 127.423 50.25C127.423 50.91 127.583 51.42 127.903 51.78C128.223 52.14 128.643 52.32 129.163 52.32C129.563 52.32 129.897 52.2267 130.163 52.04C130.43 51.8533 130.613 51.5867 130.713 51.24H131.693C131.547 51.8 131.253 52.25 130.813 52.59C130.373 52.9233 129.823 53.09 129.163 53.09C128.643 53.09 128.18 52.9733 127.773 52.74C127.373 52.5067 127.06 52.1767 126.833 51.75C126.607 51.3233 126.493 50.8233 126.493 50.25ZM135.628 47.42C136.041 47.42 136.414 47.51 136.748 47.69C137.081 47.8633 137.341 48.1267 137.528 48.48C137.721 48.8333 137.818 49.2633 137.818 49.77V53H136.918V49.9C136.918 49.3533 136.781 48.9367 136.508 48.65C136.234 48.3567 135.861 48.21 135.388 48.21C134.908 48.21 134.524 48.36 134.238 48.66C133.958 48.96 133.818 49.3967 133.818 49.97V53H132.908V45.6H133.818V48.3C133.998 48.02 134.244 47.8033 134.558 47.65C134.878 47.4967 135.234 47.42 135.628 47.42ZM138.964 50.24C138.964 49.68 139.078 49.19 139.304 48.77C139.531 48.3433 139.841 48.0133 140.234 47.78C140.634 47.5467 141.078 47.43 141.564 47.43C142.044 47.43 142.461 47.5333 142.814 47.74C143.168 47.9467 143.431 48.2067 143.604 48.52V47.52H144.524V53H143.604V51.98C143.424 52.3 143.154 52.5667 142.794 52.78C142.441 52.9867 142.028 53.09 141.554 53.09C141.068 53.09 140.628 52.97 140.234 52.73C139.841 52.49 139.531 52.1533 139.304 51.72C139.078 51.2867 138.964 50.7933 138.964 50.24ZM143.604 50.25C143.604 49.8367 143.521 49.4767 143.354 49.17C143.188 48.8633 142.961 48.63 142.674 48.47C142.394 48.3033 142.084 48.22 141.744 48.22C141.404 48.22 141.094 48.3 140.814 48.46C140.534 48.62 140.311 48.8533 140.144 49.16C139.978 49.4667 139.894 49.8267 139.894 50.24C139.894 50.66 139.978 51.0267 140.144 51.34C140.311 51.6467 140.534 51.8833 140.814 52.05C141.094 52.21 141.404 52.29 141.744 52.29C142.084 52.29 142.394 52.21 142.674 52.05C142.961 51.8833 143.188 51.6467 143.354 51.34C143.521 51.0267 143.604 50.6633 143.604 50.25ZM148.732 47.42C149.399 47.42 149.939 47.6233 150.352 48.03C150.765 48.43 150.972 49.01 150.972 49.77V53H150.072V49.9C150.072 49.3533 149.935 48.9367 149.662 48.65C149.389 48.3567 149.015 48.21 148.542 48.21C148.062 48.21 147.679 48.36 147.392 48.66C147.112 48.96 146.972 49.3967 146.972 49.97V53H146.062V47.52H146.972V48.3C147.152 48.02 147.395 47.8033 147.702 47.65C148.015 47.4967 148.359 47.42 148.732 47.42ZM152.928 46.63C152.755 46.63 152.608 46.57 152.488 46.45C152.368 46.33 152.308 46.1833 152.308 46.01C152.308 45.8367 152.368 45.69 152.488 45.57C152.608 45.45 152.755 45.39 152.928 45.39C153.095 45.39 153.235 45.45 153.348 45.57C153.468 45.69 153.528 45.8367 153.528 46.01C153.528 46.1833 153.468 46.33 153.348 46.45C153.235 46.57 153.095 46.63 152.928 46.63ZM153.368 47.52V53H152.458V47.52H153.368ZM154.579 50.25C154.579 49.6833 154.693 49.19 154.919 48.77C155.146 48.3433 155.459 48.0133 155.859 47.78C156.266 47.5467 156.729 47.43 157.249 47.43C157.923 47.43 158.476 47.5933 158.909 47.92C159.349 48.2467 159.639 48.7 159.779 49.28H158.799C158.706 48.9467 158.523 48.6833 158.249 48.49C157.983 48.2967 157.649 48.2 157.249 48.2C156.729 48.2 156.309 48.38 155.989 48.74C155.669 49.0933 155.509 49.5967 155.509 50.25C155.509 50.91 155.669 51.42 155.989 51.78C156.309 52.14 156.729 52.32 157.249 52.32C157.649 52.32 157.983 52.2267 158.249 52.04C158.516 51.8533 158.699 51.5867 158.799 51.24H159.779C159.633 51.8 159.339 52.25 158.899 52.59C158.459 52.9233 157.909 53.09 157.249 53.09C156.729 53.09 156.266 52.9733 155.859 52.74C155.459 52.5067 155.146 52.1767 154.919 51.75C154.693 51.3233 154.579 50.8233 154.579 50.25ZM163.714 47.42C164.127 47.42 164.5 47.51 164.834 47.69C165.167 47.8633 165.427 48.1267 165.614 48.48C165.807 48.8333 165.904 49.2633 165.904 49.77V53H165.004V49.9C165.004 49.3533 164.867 48.9367 164.594 48.65C164.32 48.3567 163.947 48.21 163.474 48.21C162.994 48.21 162.61 48.36 162.324 48.66C162.044 48.96 161.904 49.3967 161.904 49.97V53H160.994V45.6H161.904V48.3C162.084 48.02 162.33 47.8033 162.644 47.65C162.964 47.4967 163.32 47.42 163.714 47.42ZM172.266 53.07C171.806 53.07 171.393 52.99 171.026 52.83C170.666 52.6633 170.383 52.4367 170.176 52.15C169.969 51.8567 169.863 51.52 169.856 51.14H170.826C170.859 51.4667 170.993 51.7433 171.226 51.97C171.466 52.19 171.813 52.3 172.266 52.3C172.699 52.3 173.039 52.1933 173.286 51.98C173.539 51.76 173.666 51.48 173.666 51.14C173.666 50.8733 173.593 50.6567 173.446 50.49C173.299 50.3233 173.116 50.1967 172.896 50.11C172.676 50.0233 172.379 49.93 172.006 49.83C171.546 49.71 171.176 49.59 170.896 49.47C170.623 49.35 170.386 49.1633 170.186 48.91C169.993 48.65 169.896 48.3033 169.896 47.87C169.896 47.49 169.993 47.1533 170.186 46.86C170.379 46.5667 170.649 46.34 170.996 46.18C171.349 46.02 171.753 45.94 172.206 45.94C172.859 45.94 173.393 46.1033 173.806 46.43C174.226 46.7567 174.463 47.19 174.516 47.73H173.516C173.483 47.4633 173.343 47.23 173.096 47.03C172.849 46.8233 172.523 46.72 172.116 46.72C171.736 46.72 171.426 46.82 171.186 47.02C170.946 47.2133 170.826 47.4867 170.826 47.84C170.826 48.0933 170.896 48.3 171.036 48.46C171.183 48.62 171.359 48.7433 171.566 48.83C171.779 48.91 172.076 49.0033 172.456 49.11C172.916 49.2367 173.286 49.3633 173.566 49.49C173.846 49.61 174.086 49.8 174.286 50.06C174.486 50.3133 174.586 50.66 174.586 51.1C174.586 51.44 174.496 51.76 174.316 52.06C174.136 52.36 173.869 52.6033 173.516 52.79C173.163 52.9767 172.746 53.07 172.266 53.07ZM180.645 47.52L177.345 55.58H176.405L177.485 52.94L175.275 47.52H176.285L178.005 51.96L179.705 47.52H180.645ZM183.5 53.09C183.08 53.09 182.703 53.02 182.37 52.88C182.037 52.7333 181.773 52.5333 181.58 52.28C181.387 52.02 181.28 51.7233 181.26 51.39H182.2C182.227 51.6633 182.353 51.8867 182.58 52.06C182.813 52.2333 183.117 52.32 183.49 52.32C183.837 52.32 184.11 52.2433 184.31 52.09C184.51 51.9367 184.61 51.7433 184.61 51.51C184.61 51.27 184.503 51.0933 184.29 50.98C184.077 50.86 183.747 50.7433 183.3 50.63C182.893 50.5233 182.56 50.4167 182.3 50.31C182.047 50.1967 181.827 50.0333 181.64 49.82C181.46 49.6 181.37 49.3133 181.37 48.96C181.37 48.68 181.453 48.4233 181.62 48.19C181.787 47.9567 182.023 47.7733 182.33 47.64C182.637 47.5 182.987 47.43 183.38 47.43C183.987 47.43 184.477 47.5833 184.85 47.89C185.223 48.1967 185.423 48.6167 185.45 49.15H184.54C184.52 48.8633 184.403 48.6333 184.19 48.46C183.983 48.2867 183.703 48.2 183.35 48.2C183.023 48.2 182.763 48.27 182.57 48.41C182.377 48.55 182.28 48.7333 182.28 48.96C182.28 49.14 182.337 49.29 182.45 49.41C182.57 49.5233 182.717 49.6167 182.89 49.69C183.07 49.7567 183.317 49.8333 183.63 49.92C184.023 50.0267 184.343 50.1333 184.59 50.24C184.837 50.34 185.047 50.4933 185.22 50.7C185.4 50.9067 185.493 51.1767 185.5 51.51C185.5 51.81 185.417 52.08 185.25 52.32C185.083 52.56 184.847 52.75 184.54 52.89C184.24 53.0233 183.893 53.09 183.5 53.09ZM187.895 48.27V51.5C187.895 51.7667 187.951 51.9567 188.065 52.07C188.178 52.1767 188.375 52.23 188.655 52.23H189.325V53H188.505C187.998 53 187.618 52.8833 187.365 52.65C187.111 52.4167 186.985 52.0333 186.985 51.5V48.27H186.275V47.52H186.985V46.14H187.895V47.52H189.325V48.27H187.895ZM195.427 50.05C195.427 50.2233 195.417 50.4067 195.397 50.6H191.017C191.051 51.14 191.234 51.5633 191.567 51.87C191.907 52.17 192.317 52.32 192.797 52.32C193.191 52.32 193.517 52.23 193.777 52.05C194.044 51.8633 194.231 51.6167 194.337 51.31H195.317C195.171 51.8367 194.877 52.2667 194.437 52.6C193.997 52.9267 193.451 53.09 192.797 53.09C192.277 53.09 191.811 52.9733 191.397 52.74C190.991 52.5067 190.671 52.1767 190.437 51.75C190.204 51.3167 190.087 50.8167 190.087 50.25C190.087 49.6833 190.201 49.1867 190.427 48.76C190.654 48.3333 190.971 48.0067 191.377 47.78C191.791 47.5467 192.264 47.43 192.797 47.43C193.317 47.43 193.777 47.5433 194.177 47.77C194.577 47.9967 194.884 48.31 195.097 48.71C195.317 49.1033 195.427 49.55 195.427 50.05ZM194.487 49.86C194.487 49.5133 194.411 49.2167 194.257 48.97C194.104 48.7167 193.894 48.5267 193.627 48.4C193.367 48.2667 193.077 48.2 192.757 48.2C192.297 48.2 191.904 48.3467 191.577 48.64C191.257 48.9333 191.074 49.34 191.027 49.86H194.487ZM203.218 47.42C203.645 47.42 204.025 47.51 204.358 47.69C204.692 47.8633 204.955 48.1267 205.148 48.48C205.342 48.8333 205.438 49.2633 205.438 49.77V53H204.538V49.9C204.538 49.3533 204.402 48.9367 204.128 48.65C203.862 48.3567 203.498 48.21 203.038 48.21C202.565 48.21 202.188 48.3633 201.908 48.67C201.628 48.97 201.488 49.4067 201.488 49.98V53H200.588V49.9C200.588 49.3533 200.452 48.9367 200.178 48.65C199.912 48.3567 199.548 48.21 199.088 48.21C198.615 48.21 198.238 48.3633 197.958 48.67C197.678 48.97 197.538 49.4067 197.538 49.98V53H196.628V47.52H197.538V48.31C197.718 48.0233 197.958 47.8033 198.258 47.65C198.565 47.4967 198.902 47.42 199.268 47.42C199.728 47.42 200.135 47.5233 200.488 47.73C200.842 47.9367 201.105 48.24 201.278 48.64C201.432 48.2533 201.685 47.9533 202.038 47.74C202.392 47.5267 202.785 47.42 203.218 47.42Z" fill="white"/>
</svg>
