<svg version="1.2" xmlns="http://www.w3.org/2000/svg" viewBox="0 0 200 92" width="200" height="92"><style>tspan{white-space:pre}.a{font-size: 11px;fill: #000000;font-family: "' Segoe  UI  Historic'"}.b{fill:#fff}.c{font-size: 11px;fill: #ffffff;font-family: "Poppins"}.d{font-size: 10px;fill: #ffffff;font-family: "Poppins"}</style><text style="transform:matrix(1,0,0,1,64.491,266.48)" ><tspan x="0" y="0" class="a">Tune-Up
</tspan></text><path  d="m-2.2-0.8h208.9v95.6h-208.9z"/><path fill-rule="evenodd" class="b" d="m47.5 14.4l-4.3 2.9c-2.6-0.8-4.2 2.3-2.5 3.9l0.2 17.7c0 1.5 0.2 1.5 1.5 2.2l6.4 3.2c3.4 5 8.2-3.8 1.5-3.1l-5.4-3-0.2-16.7c0.2-0.7 0.2-1.4 1.2-2l5.2-3.4 7.7 4.4-0.1 7.9-5.8 2.5c-7.9-1.1-3.1 8.9 1.1 2.7l6.6-3.1 7.1 4.9 0.3 16.4-6.4 3.7-0.1-4.9c5.8-7.2-8.5-6.8-2.5-0.1l0.1 15.7-7.5 4.3-7.3-3.8c-3.4-6.7-9.9 3-1.4 2.6l5.8 3.3-7.4 3.9-7.1-3.8v-9.3l3.2-2.4c8.1-0.2 0.6-9-1.2-2.3l-2 1.1-0.1-44.4 8-4.8zm-4.3 35.5l6.2 3.5 0.1 7c-3.3 6 6.8 5.8 3.1 0v-8.3l-8.7-5.1c-0.8-1.2-1.7-1.6-2.5-1.6-2.8 0-4.2 5.7 1.8 4.5z"/><path class="b" d="m14.7 55.9c-7.3-10.4-5.1-29.1 11-31.3l-0.9-2.6-2.9 1.1-1.6-2.4c-1.1-2.4-4.5-2-2.8 1.9l1.2 2.2c-2 1.1-3.9 2-6.2 5.4l-2.1-1.4c-2.6-1.4-4 0.5-1.6 2.5l1.9 1.6c-1.3 2.7-2 5.4-2 8.1l-3.6 0.3c-2.3 1.2-1.3 2.1-0.2 2.9l3.2 0.2c0.3 2.7 1.3 5.5 2.7 8.2l-2.7 2c-2.2 1-1.7 3.1 1.2 2.3l3.2-1.2c1.4 2.6 3.4 4.2 5.5 5.8l-1.8 3.5c0.3 2 1.6 2 3.2 1.4l1.7-2.9c3 2.2 5.3 2.1 7.7 2.4v8.3l-3.2 0.1 0.1-5.5-3.6-1.2-3.7 4.3-7.7-4.7 3.2-4.5-3.7-3.5-4 3-4.7-7.4 5.2-3.7c-0.6-1.2-1-2.3-1.1-3.3l-5.3 0.1 0.1-9.9 5.8 0.3 0.8-4.1-4.3-3.3 5.4-7.3 4 2.7 2.8-2.8-1.9-4.8 7.8-3.9 3 4.8 3.3-1.2-0.1-5.5 3.1 0.1-0.1 14.7c-15.8 0.9-19.6 17.4-12.2 26.1 3.2 3.7 9.5 7.3 14.8 6.6l-0.1 3.6c-6.7 0.3-13.5-1.9-17.8-8.1z"/><path class="b" d="m75 9.2h1.8l0.3 70.1-1.9 0.1z"/><text style="transform:matrix(2.259,-0.008,.008,2.259,84.628,45.283)" ><tspan x="0" y="0" class="c">EMS
</tspan></text><text style="transform:matrix(1,-0.003,.003,1,85.34,57.077)" ><tspan x="0" y="0" class="d">Ease Mechanic System
</tspan></text></svg>